<svg width="166" height="168" viewBox="0 0 166 168" fill="none" xmlns="http://www.w3.org/2000/svg">
<ellipse cx="59.2955" cy="64.416" rx="52.0954" ry="38.0739" transform="rotate(12.3752 59.2955 64.416)" fill="#E9F4FF"/>
<ellipse cx="59.2941" cy="64.4127" rx="52.0954" ry="38.0739" transform="rotate(-60 59.2941 64.4127)" fill="#E9F4FF"/>
<g filter="url(#filter0_d_822_1519)">
<path d="M48.0811 68.5466C48.1101 63.8635 49.6651 59.7511 52.7422 56.2219C53.0041 55.9214 52.9862 55.7615 52.7077 55.5175C52.3837 55.2349 52.0873 54.9206 51.7923 54.6062C51.2615 54.0383 51.2478 53.2552 51.7482 52.7479C52.2486 52.2378 53.0385 52.2378 53.6065 52.7617C53.9346 53.065 54.2641 53.3738 54.555 53.7129C54.8293 54.0327 55.0416 54.0203 55.367 53.7653C57.4735 52.1165 59.8419 51.0012 62.4419 50.3808C62.8927 50.2733 63.3504 50.1823 63.8095 50.1162C64.11 50.072 64.2258 49.9314 64.2189 49.6378C64.2093 49.1897 64.2286 48.7417 64.2148 48.2937C64.2052 47.9711 64.3168 47.8249 64.6587 47.8277C66.0373 47.8387 67.4145 47.8373 68.7931 47.8277C69.1185 47.8249 69.266 47.938 69.255 48.2757C69.2398 48.7238 69.2605 49.1718 69.2508 49.6199C69.2453 49.9025 69.3335 50.0638 69.6423 50.112C72.8048 50.6069 75.6489 51.8449 78.1703 53.8149C78.4488 54.0327 78.6322 54.0176 78.8638 53.7612C79.1753 53.4165 79.5103 53.0912 79.8494 52.7741C80.4147 52.2447 81.2005 52.2337 81.7078 52.7355C82.2151 53.2373 82.2124 54.0272 81.6871 54.5938C81.3825 54.9219 81.0709 55.2459 80.7359 55.5423C80.4698 55.778 80.4767 55.938 80.7152 56.2082C82.9858 58.7861 84.4967 61.7542 85.0716 65.1483C86.14 71.4513 84.4953 76.9794 80.0466 81.5729C76.0225 85.728 71.0182 87.5546 65.2694 87.1535C56.7042 86.5552 49.5286 79.8359 48.2838 71.381C48.1487 70.4408 48.0604 69.5006 48.0811 68.5466ZM66.7666 53.28C58.2552 53.3834 51.5014 59.9938 51.4973 68.5397C51.4918 77.0001 58.1338 83.7304 66.6522 83.7842C75.1815 83.8379 82.0001 77.0925 81.9739 68.4997C81.9463 60.0117 75.2629 53.4262 66.7666 53.28Z" fill="#0073EC"/>
<path d="M66.7125 46.6602C65.3863 46.6602 64.0601 46.6643 62.7353 46.6588C61.8033 46.6547 61.3332 46.1901 61.3264 45.2678C61.3195 44.493 61.3167 43.7183 61.3277 42.9435C61.3388 42.1191 61.824 41.6311 62.6553 41.6297C65.3753 41.6228 68.0966 41.6228 70.8166 41.6297C71.652 41.6324 72.1345 42.1136 72.1456 42.9407C72.1566 43.75 72.158 44.5592 72.1442 45.3684C72.1318 46.1625 71.6438 46.6505 70.8442 46.656C69.4683 46.6684 68.0897 46.6602 66.7125 46.6602Z" fill="#0073EC"/>
<path d="M39.9073 64.7856C41.6291 64.7856 43.351 64.7828 45.0715 64.7869C45.9662 64.7897 46.4983 65.2639 46.5038 66.0497C46.5094 66.8438 45.98 67.336 45.0963 67.3373C41.6016 67.3415 38.1068 67.3415 34.6121 67.3373C33.7298 67.3373 33.1977 66.8383 33.2032 66.047C33.2101 65.2612 33.7408 64.7897 34.6383 64.7869C36.3946 64.7828 38.1509 64.7856 39.9073 64.7856Z" fill="#0073EC"/>
<path d="M42.7221 62.3791C41.4139 62.3791 40.1056 62.3819 38.7973 62.3778C37.8709 62.375 37.3305 61.8939 37.336 61.0888C37.3415 60.3016 37.8709 59.8274 38.7683 59.826C41.4704 59.8232 44.1738 59.8219 46.8759 59.8287C47.4935 59.8301 47.9677 60.1913 48.1166 60.7276C48.2779 61.3094 48.0463 61.9022 47.5458 62.2082C47.2991 62.3598 47.0289 62.3778 46.7504 62.3778C45.4076 62.3778 44.0649 62.3791 42.7221 62.3791Z" fill="#0073EC"/>
<path d="M41.0686 72.3044C39.7259 72.3044 38.3831 72.31 37.0404 72.3017C36.205 72.2976 35.6756 71.7861 35.6797 71.0155C35.6838 70.2586 36.1967 69.7554 37.0073 69.754C39.7438 69.7471 42.4803 69.7485 45.2182 69.7554C45.8372 69.7568 46.3101 70.1166 46.4603 70.6529C46.623 71.2347 46.3914 71.8261 45.891 72.1349C45.6442 72.2865 45.374 72.3058 45.0955 72.3058C43.7541 72.3031 42.4114 72.3044 41.0686 72.3044Z" fill="#0073EC"/>
<path d="M43.1418 77.265C42.2126 77.265 41.2834 77.2705 40.3542 77.2636C39.5188 77.2567 38.9894 76.7508 38.9922 75.9801C38.995 75.2081 39.5188 74.7173 40.368 74.7146C42.2264 74.7091 44.0847 74.7091 45.9431 74.7146C46.7978 74.7173 47.3217 75.2012 47.3299 75.9705C47.3382 76.7659 46.8102 77.2595 45.9307 77.265C45.0001 77.2691 44.0709 77.265 43.1418 77.265Z" fill="#0073EC"/>
<path d="M66.7708 61.5162C66.7708 63.6172 66.7708 65.7195 66.7708 67.8205C66.7708 68.5084 66.7722 68.5098 67.4422 68.5098C71.6621 68.5098 75.882 68.5098 80.1019 68.5098C80.8366 68.5098 80.8656 68.5139 80.8215 69.2542C80.5595 73.6203 78.6998 77.1812 75.2203 79.8046C67.4739 85.6457 56.3887 82.1524 53.3213 72.953C50.5765 64.7242 56.0702 55.7881 64.6216 54.5819C65.1482 54.5074 65.679 54.4523 66.2153 54.4412C66.644 54.433 66.7819 54.5791 66.7777 55.0051C66.7626 57.1764 66.7708 59.3463 66.7708 61.5162Z" fill="#0073EC"/>
</g>
<defs>
<filter id="filter0_d_822_1519" x="13.2031" y="21.6245" width="152.184" height="145.583" filterUnits="userSpaceOnUse" color-interpolation-filters="sRGB">
<feFlood flood-opacity="0" result="BackgroundImageFix"/>
<feColorMatrix in="SourceAlpha" type="matrix" values="0 0 0 0 0 0 0 0 0 0 0 0 0 0 0 0 0 0 127 0" result="hardAlpha"/>
<feOffset dx="30" dy="30"/>
<feGaussianBlur stdDeviation="25"/>
<feComposite in2="hardAlpha" operator="out"/>
<feColorMatrix type="matrix" values="0 0 0 0 1 0 0 0 0 0.811765 0 0 0 0 0.0901961 0 0 0 0.07 0"/>
<feBlend mode="normal" in2="BackgroundImageFix" result="effect1_dropShadow_822_1519"/>
<feBlend mode="normal" in="SourceGraphic" in2="effect1_dropShadow_822_1519" result="shape"/>
</filter>
</defs>
</svg>
