<svg width="119" height="129" viewBox="0 0 119 129" fill="none" xmlns="http://www.w3.org/2000/svg">
<ellipse cx="59.4127" cy="64.6797" rx="52.0954" ry="38.0739" transform="rotate(12.3752 59.4127 64.6797)" fill="white" fill-opacity="0.3"/>
<ellipse cx="59.4113" cy="64.6764" rx="52.0954" ry="38.0739" transform="rotate(-60 59.4113 64.6764)" fill="white" fill-opacity="0.3"/>
<path d="M61.8597 61.6424C61.9265 68.3958 56.5196 74.6908 48.7983 74.6842C41.1975 74.6777 35.7369 68.4954 35.7579 61.6071C35.7801 54.4175 41.6153 48.5457 48.7878 48.5601C56.4699 48.5745 61.9737 54.8996 61.8597 61.6424ZM44.2729 61.6346C44.2729 63.6805 44.2703 65.7251 44.2742 67.771C44.2756 68.4783 44.5087 68.7049 45.2173 68.718C45.3313 68.7206 45.4465 68.7193 45.5605 68.7193C47.0288 68.722 46.7865 68.6277 46.8127 69.9375C46.8153 70.0828 46.8127 70.24 46.865 70.3723C47 70.7155 47.2711 70.9015 47.6391 70.8294C48.1028 70.7404 48.2417 70.3998 48.2495 69.9558C48.2705 68.6106 48.2914 68.6028 49.5619 68.7193C49.8396 68.7455 49.9811 68.8464 49.9719 69.1411C49.9614 69.4672 49.9562 69.7973 49.9837 70.1221C50.0204 70.5505 50.3334 70.8412 50.7159 70.8412C51.097 70.8412 51.38 70.5465 51.4088 70.1025C51.4245 69.8576 51.4389 69.6087 51.4114 69.3664C51.359 68.887 51.5345 68.6578 52.0152 68.4823C54.716 67.496 55.4535 64.0748 53.4075 62.0563C53.0735 61.7263 53.0526 61.5743 53.3997 61.2351C55.2701 59.4145 54.8771 56.2133 52.5522 55.0672C51.6734 54.6337 51.2542 54.2185 51.3944 53.2453C51.4533 52.8379 51.1769 52.572 50.746 52.5406C50.3426 52.5118 50.0322 52.7764 49.9876 53.2112C49.9549 53.519 49.9758 53.8321 49.968 54.1425C49.9641 54.2695 49.9929 54.4437 49.8462 54.4883C49.3838 54.6258 48.8966 54.6337 48.446 54.5001C48.0976 54.3966 48.2862 54.0194 48.2508 53.7626C48.2259 53.5858 48.2548 53.4024 48.2377 53.223C48.1971 52.7934 47.8985 52.5157 47.4938 52.5393C47.0668 52.5642 46.8428 52.8143 46.8192 53.2335C46.8022 53.5269 46.8022 53.8229 46.81 54.1163C46.8179 54.4306 46.6633 54.5616 46.3634 54.5603C45.9875 54.559 45.6102 54.5603 45.2343 54.5656C44.4956 54.576 44.2756 54.7961 44.2742 55.544C44.2703 57.5755 44.2716 59.6044 44.2729 61.6346Z" fill="white"/>
<path d="M66.0688 88.298C60.8649 88.2836 56.5622 84.3712 55.982 79.1555C55.7829 77.3676 56.0867 75.674 56.7718 74.0302C56.87 73.7945 57.0128 73.615 57.2197 73.467C58.7522 72.3668 60.0266 71.0177 61.0352 69.4223C61.1806 69.1918 61.3653 69.0268 61.6089 68.9089C62.6332 68.4112 63.7111 68.1034 64.835 67.9318C65.1624 67.882 65.3065 68.0588 65.4532 68.2959C67.025 70.8356 69.2818 72.4074 72.1908 73.0571C72.9793 73.2339 73.7809 73.2666 74.5812 73.2273C74.9689 73.2077 75.168 73.3505 75.337 73.6897C77.0987 77.2144 76.4765 81.8249 73.8242 84.7995C71.7743 87.0982 69.0944 88.3058 66.0688 88.298ZM70.3453 80.5727C70.3506 80.3527 70.2563 80.1601 70.1711 79.965C69.0853 77.4777 67.9968 74.9916 66.9175 72.5017C66.763 72.1454 66.5639 71.8822 66.1343 71.8756C65.7204 71.8691 65.5213 72.1258 65.3746 72.4598C64.2639 75.0074 63.1532 77.5549 62.0398 80.1025C61.8748 80.4784 61.8971 80.8347 62.1263 81.1739C63.2304 82.8151 64.3281 84.4616 65.4466 86.0949C65.8645 86.7053 66.412 86.6974 66.8285 86.087C67.9431 84.4524 69.0434 82.8073 70.1475 81.1661C70.268 80.9866 70.3623 80.798 70.3453 80.5727Z" fill="white"/>
<path d="M74.4415 49.0445C74.4323 53.0656 71.4682 56.3833 67.4602 56.8771C65.6121 57.105 63.925 56.6702 62.3467 55.7219C62.0848 55.5647 61.9027 55.3578 61.7652 55.0814C61.1168 53.7834 60.2942 52.6059 59.2713 51.575C59.0303 51.3327 58.8888 51.0629 58.8115 50.7315C57.7427 46.1799 61.0395 41.5563 65.6867 41.1005C70.4361 40.6329 74.4533 44.2781 74.4415 49.0445ZM66.5446 46.1943C66.5454 46.1943 66.546 46.1938 66.546 46.193C66.546 46.1923 66.5465 46.1917 66.5473 46.1917C66.6608 46.1917 66.7756 46.1917 66.8891 46.1917C68.0797 46.1917 68.1203 46.2232 68.4976 47.3719C68.6246 47.7569 68.8827 47.9875 69.3031 47.9403C69.6934 47.8958 69.9554 47.5002 69.9187 47.068C69.8139 45.8197 68.9757 44.9356 67.7038 44.7667C67.3803 44.7234 67.2349 44.5911 67.2441 44.2689C67.2519 43.9912 67.2506 43.7123 67.2375 43.4346C67.2153 42.9473 66.9481 42.6408 66.5538 42.6317C66.1452 42.6212 65.8269 42.9526 65.7994 43.4372C65.7837 43.7149 65.7784 43.9939 65.7967 44.2715C65.819 44.6055 65.6697 44.7247 65.3501 44.7693C63.946 44.9644 63.0566 46.0437 63.1418 47.419C63.2204 48.7026 64.3219 49.7086 65.6815 49.7308C66.2054 49.7387 66.7293 49.7282 67.2519 49.7348C67.9998 49.7426 68.4295 50.1094 68.4452 50.742C68.4609 51.3746 68.0378 51.7977 67.3148 51.8318C66.8092 51.8553 66.2997 51.8527 65.7941 51.8331C65.0829 51.8056 64.7777 51.5318 64.614 50.8284C64.4765 50.2325 64.1949 49.9993 63.7233 50.0923C63.2872 50.1775 63.071 50.5835 63.1693 51.1336C63.3762 52.2863 64.1595 53.0892 65.3187 53.249C65.7116 53.3027 65.8164 53.4598 65.7981 53.8135C65.7823 54.1069 65.7732 54.4068 65.8177 54.695C65.878 55.0958 66.119 55.346 66.5525 55.3381C66.9913 55.3303 67.2061 55.0761 67.231 54.657C67.2506 54.3309 67.2441 54.0034 67.2519 53.676C67.2585 53.4297 67.3607 53.2948 67.6331 53.2686C69.0084 53.1376 69.9934 52.0335 69.9305 50.6752C69.8676 49.3051 68.7595 48.1931 67.2323 48.2822C66.6638 48.3149 66.0862 48.3411 65.5178 48.2416C64.9257 48.1368 64.5603 47.698 64.6009 47.1571C64.6415 46.624 65.075 46.2258 65.6618 46.2009C65.9561 46.1839 66.2504 46.1943 66.5446 46.1943Z" fill="white"/>
<path d="M83.0459 62.9017C83.0748 67.4572 79.5894 71.3015 75.1138 71.6839C70.4351 72.0834 66.2987 68.8888 65.5535 64.2888C65.2417 62.3686 65.5652 60.5466 66.4428 58.8151C66.5908 58.5217 66.7794 58.3933 67.1213 58.3658C70.0422 58.1235 72.3985 56.8438 74.1196 54.456C74.358 54.1246 74.616 54.0382 74.9906 54.0762C79.2462 54.5058 82.4867 57.6349 83.0394 61.8735C83.0839 62.2101 83.0459 62.5572 83.0459 62.9017ZM68.8083 65.2973C68.8267 66.0793 69.4043 67.0367 70.5478 67.5895C71.7174 68.1566 72.8504 67.9863 73.8459 67.1599C74.1655 66.894 74.3344 66.8953 74.654 67.1599C76.1878 68.4251 78.3765 68.0086 79.3222 66.3032C80.2364 64.6542 79.5082 62.6174 77.7268 61.9141C77.3496 61.7648 77.1662 61.6338 77.2841 61.1806C77.3889 60.7758 77.3627 60.3371 77.254 59.9166C76.8375 58.3186 75.2657 57.2918 73.7162 57.6074C71.9859 57.9598 70.9224 59.4438 71.2184 61.1819C71.2957 61.6364 71.1529 61.7687 70.7744 61.9141C69.5209 62.3961 68.8057 63.4754 68.8083 65.2973Z" fill="white"/>
<path d="M48.5389 56.0164C49.275 56.0164 50.0124 56.006 50.7485 56.0191C52.078 56.0426 53.1166 57.1272 53.1114 58.471C53.1062 59.7913 52.074 60.8745 50.7695 60.8889C49.2475 60.906 47.7242 60.885 46.2022 60.8994C45.8315 60.9033 45.711 60.7514 45.7123 60.4056C45.7188 59.1128 45.7215 57.8187 45.711 56.526C45.7084 56.154 45.8406 55.9981 46.2297 56.0099C46.9998 56.0309 47.77 56.0164 48.5389 56.0164Z" fill="white"/>
<path d="M48.5559 62.3944C48.5559 62.3959 48.557 62.3966 48.5585 62.3966C49.2937 62.3965 50.0303 62.3835 50.7655 62.3992C52.0832 62.428 53.1035 63.4863 53.1101 64.8105C53.1179 66.1151 52.0884 67.2376 50.7943 67.2638C49.2566 67.2952 47.7176 67.2664 46.1799 67.2782C45.8367 67.2808 45.7123 67.1354 45.7136 66.8106C45.7188 65.5008 45.7214 64.1923 45.711 62.8825C45.7083 62.4948 45.876 62.3756 46.248 62.3848C47.016 62.4057 47.784 62.3913 48.5533 62.3913C48.5547 62.3913 48.5559 62.393 48.5559 62.3944Z" fill="white"/>
<path d="M68.4417 80.2223C66.9665 80.7739 65.3232 80.7872 63.8482 80.2354C63.5613 80.128 63.7316 79.9027 63.8036 79.7376C64.3197 78.5365 64.8436 77.3381 65.3636 76.1383C65.5522 75.7034 65.7382 75.2673 65.9321 74.835C65.9753 74.7381 65.9936 74.594 66.1416 74.5993C66.2595 74.6045 66.2805 74.7263 66.3185 74.8114C67.0454 76.4736 67.7724 78.1357 68.4941 79.8005C68.5556 79.9433 68.6643 80.1397 68.4417 80.2223Z" fill="white"/>
<path d="M64.6264 82.1458C64.6608 82.0895 64.7337 82.071 64.7919 82.102C65.4516 82.4534 66.1116 82.5545 66.7907 82.3767C67.1704 82.2772 67.4631 82.5083 67.2527 82.8397C66.9645 83.2942 66.6581 83.7369 66.3529 84.1809C66.2599 84.3158 66.1368 84.4835 65.9796 84.2582C65.5229 83.6023 65.0785 82.9379 64.6297 82.2767C64.603 82.2374 64.6017 82.1862 64.6264 82.1458Z" fill="white"/>
<path d="M74.2627 59.0601C75.1547 59.0653 75.8869 59.7936 75.8882 60.6777C75.8895 61.5684 75.1089 62.3542 74.2339 62.3438C73.3511 62.332 72.5901 61.5382 72.6097 60.6489C72.6281 59.7621 73.3629 59.0561 74.2627 59.0601Z" fill="white"/>
<path d="M76.6256 63.1655C77.5084 63.1629 78.2459 63.8951 78.2537 64.7805C78.2616 65.6804 77.5019 66.4532 76.6125 66.4505C75.752 66.4479 74.9805 65.6777 74.9766 64.8172C74.9714 63.9095 75.7127 63.1682 76.6256 63.1655Z" fill="white"/>
<path d="M71.8559 66.3968C70.9613 66.3876 70.2396 65.658 70.2501 64.7713C70.2606 63.8859 70.9902 63.1733 71.89 63.1733C72.7767 63.1733 73.5325 63.9147 73.5259 64.7779C73.5168 65.6934 72.7833 66.4059 71.8559 66.3968Z" fill="white"/>
</svg>
