<svg width="9" height="20" viewBox="0 0 9 20" fill="none" xmlns="http://www.w3.org/2000/svg">
<path d="M3.72407 19.4142C3.42571 19.3517 3.12735 19.3038 2.84109 19.1871C1.89764 18.7997 1.35938 17.9852 1.35737 16.9415C1.35535 16.0521 1.5771 15.2084 1.8049 14.3627C2.11737 13.2107 2.46814 12.0671 2.71409 10.8964C2.79876 10.4943 2.86125 10.0902 2.81085 9.6736C2.74029 9.10074 2.49435 8.86535 1.92586 8.81744C1.46824 8.77995 1.02676 8.83619 0.597363 8.99451C0.492535 9.03409 0.38569 9.06741 0.280862 9.10074C0.194177 9.12782 0.155875 9.09449 0.17805 9.00076C0.246591 8.71329 0.315133 8.42582 0.383674 8.13835C0.399802 8.06753 0.446168 8.02586 0.510678 8.00087C1.36342 7.66549 2.20607 7.29053 3.11727 7.14888C3.85913 7.03222 4.59293 7.06139 5.28843 7.37593C6.25406 7.8113 6.72377 8.77995 6.64716 9.86524C6.55443 11.1755 6.10689 12.3879 5.79644 13.6377C5.59686 14.4397 5.33278 15.2251 5.22795 16.05C5.19368 16.3124 5.15739 16.5749 5.19569 16.8436C5.28036 17.4165 5.50615 17.629 6.06859 17.6998C6.63708 17.7727 7.17332 17.6456 7.70351 17.4582C7.75592 17.4394 7.81438 17.3811 7.86478 17.4332C7.91115 17.4811 7.86882 17.5477 7.85672 17.6061C7.79826 17.8519 7.73778 18.0997 7.68133 18.3456C7.66319 18.4268 7.63497 18.4893 7.5503 18.5226C6.74998 18.8268 5.97586 19.2121 5.12514 19.3663C5.03442 19.3829 4.94169 19.3975 4.84896 19.4121C4.47399 19.4142 4.09903 19.4142 3.72407 19.4142Z" fill="url(#paint0_linear_822_1774)"/>
<path d="M5.88717 0.805164C6.7016 0.80933 7.35476 1.15513 7.80633 1.85088C8.46554 2.86744 8.1309 4.20062 7.07455 4.84638C6.04643 5.47548 4.68164 5.18385 3.9801 4.18604C3.33299 3.26531 3.55474 1.97587 4.47602 1.27386C4.89735 0.955148 5.36504 0.794749 5.88717 0.805164Z" fill="url(#paint1_linear_822_1774)"/>
<defs>
<linearGradient id="paint0_linear_822_1774" x1="0.0187428" y1="9.98534" x2="9.06933" y2="14.0952" gradientUnits="userSpaceOnUse">
<stop stop-color="#0073EC"/>
<stop offset="1" stop-color="#2E93FF"/>
</linearGradient>
<linearGradient id="paint1_linear_822_1774" x1="3.51934" y1="1.83319" x2="7.61679" y2="4.91717" gradientUnits="userSpaceOnUse">
<stop stop-color="#0073EC"/>
<stop offset="1" stop-color="#2E93FF"/>
</linearGradient>
</defs>
</svg>
