<svg width="159" height="169" viewBox="0 0 159 169" fill="none" xmlns="http://www.w3.org/2000/svg">
<ellipse cx="59.1159" cy="64.416" rx="52.0954" ry="38.0739" transform="rotate(12.3752 59.1159 64.416)" fill="#E9F4FF"/>
<ellipse cx="59.1144" cy="64.4127" rx="52.0954" ry="38.0739" transform="rotate(-60 59.1144 64.4127)" fill="#E9F4FF"/>
<g filter="url(#filter0_d_822_1513)">
<path d="M78.7187 60.0893C78.5218 66.7242 75.8437 72.0845 70.4426 76.0196C67.2867 78.319 64.69 81.1153 62.6987 84.4762C62.1721 85.3666 61.6454 86.2571 61.1038 87.138C60.1034 88.7669 58.1216 88.7723 57.1321 87.138C55.9823 85.2363 54.8489 83.3278 53.4481 81.5917C51.6808 79.4022 49.6664 77.4734 47.4267 75.7739C43.0193 72.4307 40.4185 68.0029 39.6733 62.5312C38.2725 52.23 45.5209 42.45 55.7652 40.7451C66.1139 39.0225 75.8518 45.5 78.2273 55.6913C78.5626 57.1315 78.7567 58.5921 78.7187 60.0893ZM59.1152 68.6721C63.8416 68.6843 67.7021 64.8727 67.7482 60.1965C67.7917 55.7022 64.3384 51.4495 59.122 51.4427C54.0128 51.4359 50.5216 55.5488 50.4958 59.9861C50.4659 64.8211 54.2842 68.6585 59.1152 68.6721Z" fill="#0073EC"/>
</g>
<defs>
<filter id="filter0_d_822_1513" x="19.5" y="20.4683" width="139.224" height="147.894" filterUnits="userSpaceOnUse" color-interpolation-filters="sRGB">
<feFlood flood-opacity="0" result="BackgroundImageFix"/>
<feColorMatrix in="SourceAlpha" type="matrix" values="0 0 0 0 0 0 0 0 0 0 0 0 0 0 0 0 0 0 127 0" result="hardAlpha"/>
<feOffset dx="30" dy="30"/>
<feGaussianBlur stdDeviation="25"/>
<feComposite in2="hardAlpha" operator="out"/>
<feColorMatrix type="matrix" values="0 0 0 0 1 0 0 0 0 0.811765 0 0 0 0 0.0901961 0 0 0 0.07 0"/>
<feBlend mode="normal" in2="BackgroundImageFix" result="effect1_dropShadow_822_1513"/>
<feBlend mode="normal" in="SourceGraphic" in2="effect1_dropShadow_822_1513" result="shape"/>
</filter>
</defs>
</svg>
