<svg width="271" height="85" viewBox="0 0 271 85" fill="none" xmlns="http://www.w3.org/2000/svg">
<path d="M16.3594 66.7779V49.6651C16.3594 48.7167 16.5267 48.131 16.8615 47.9078C17.1962 47.6568 17.8935 47.5313 18.9535 47.5313H24.1835L29.0789 58.4516L29.1626 58.87L29.2463 58.8282L29.3299 58.4098L34.0579 47.5313H39.6227C40.6269 47.5313 41.2684 47.6707 41.5474 47.9497C41.8542 48.2286 42.0076 48.8004 42.0076 49.6651V64.644C42.0076 65.3414 41.9379 65.8435 41.7984 66.1503C41.6589 66.4292 41.4079 66.6105 41.0453 66.6942C40.6827 66.75 40.1527 66.7779 39.4553 66.7779H35.1458V54.8952L34.8529 56.0667L30.2086 66.7779H26.0664L21.4639 56.1922L21.2129 55.0207V66.7779H16.3594Z" fill="#0677EE"/>
<path d="M57.1326 66.9871C55.1801 66.9871 53.6041 66.9174 52.4046 66.7779C51.2052 66.6663 50.2708 66.4292 49.6013 66.0666C48.9598 65.704 48.5274 65.188 48.3043 64.5185C48.0811 63.8491 47.9695 62.9844 47.9695 61.9244C47.9695 60.5018 48.109 59.4279 48.388 58.7027C48.6669 57.9495 49.155 57.4335 49.8524 57.1546C50.5497 56.8756 51.4841 56.7362 52.6557 56.7362C53.353 56.7362 54.148 56.7501 55.0406 56.778C55.9611 56.778 56.8537 56.792 57.7184 56.8198C58.611 56.8477 59.3781 56.9035 60.0196 56.9872C60.6891 57.043 61.1493 57.0988 61.4003 57.1546C61.4003 56.2899 61.3167 55.6065 61.1493 55.1044C61.0098 54.6023 60.7727 54.2257 60.438 53.9747C60.1033 53.6958 59.657 53.5145 59.0991 53.4308C58.5412 53.3471 57.8578 53.3052 57.0489 53.3052C56.0727 53.3052 55.0964 53.3192 54.1201 53.3471C53.1717 53.375 52.2373 53.4308 51.3168 53.5145C50.4242 53.5981 49.6013 53.6958 48.8482 53.8073V52.6358C48.8482 51.8827 49.0156 51.3248 49.3503 50.9622C49.685 50.5996 50.1453 50.3625 50.731 50.2509C51.3726 50.1114 52.321 50.0138 53.5762 49.958C54.8593 49.9022 56.24 49.8743 57.7184 49.8743C59.5873 49.8743 61.1493 49.972 62.4045 50.1672C63.6876 50.3625 64.6918 50.7111 65.417 51.2132C66.1423 51.7153 66.6583 52.4684 66.9651 53.4726C67.272 54.4489 67.4254 55.7599 67.4254 57.4056V65.7319C66.9791 66.1503 65.8633 66.4711 64.0781 66.6942C62.3208 66.8895 60.0057 66.9871 57.1326 66.9871ZM57.0908 64.393C57.8718 64.393 58.5273 64.379 59.0573 64.3511C59.6152 64.2954 60.0893 64.2256 60.4799 64.1419C60.8704 64.0583 61.1772 63.9606 61.4003 63.8491V59.1629C61.0935 59.0792 60.6612 59.0095 60.1033 58.9537C59.5733 58.8979 59.0294 58.8561 58.4715 58.8282C57.9136 58.8003 57.4813 58.7864 57.1745 58.7864C56.505 58.7864 55.9611 58.8421 55.5427 58.9537C55.1243 59.0653 54.8174 59.3163 54.6222 59.7068C54.4548 60.0974 54.3711 60.6971 54.3711 61.506C54.3711 62.2033 54.4409 62.7751 54.5803 63.2214C54.7198 63.6399 54.9848 63.9467 55.3753 64.1419C55.7658 64.3093 56.3376 64.393 57.0908 64.393Z" fill="#0677EE"/>
<path d="M74.4621 66.7779C73.4021 66.7779 72.8722 66.234 72.8722 65.1461V51.0877C73.709 50.8088 74.9642 50.5577 76.6378 50.3346C78.3114 50.0835 80.1524 49.958 82.1608 49.958C84.3086 49.958 85.9961 50.0835 87.2234 50.3346C88.4787 50.5577 89.3992 50.9622 89.9849 51.5479C90.5986 52.1058 90.9891 52.859 91.1565 53.8073C91.3517 54.7557 91.4493 55.9412 91.4493 57.3638V64.4348C91.4493 65.0485 91.4075 65.5366 91.3238 65.8992C91.2401 66.234 91.017 66.4711 90.6544 66.6105C90.3196 66.75 89.7897 66.8197 89.0644 66.8197L85.257 66.7779V55.8994C85.257 54.9789 84.978 54.3234 84.4201 53.9329C83.8623 53.5423 83.1091 53.3471 82.1608 53.3471C81.826 53.3471 81.4634 53.3889 81.0729 53.4726C80.6824 53.5284 80.3058 53.6121 79.9432 53.7237C79.6085 53.8073 79.3295 53.9329 79.1064 54.1002V66.7779H74.4621Z" fill="#0677EE"/>
<path d="M106.861 67.0289C104.351 67.0289 102.328 66.8197 100.794 66.4013C99.2879 65.955 98.1861 65.1461 97.4888 63.9746C96.8193 62.7752 96.4846 61.0457 96.4846 58.7864C96.4846 56.3317 96.8193 54.4628 97.4888 53.1797C98.1861 51.8966 99.2879 51.018 100.794 50.5438C102.328 50.0696 104.351 49.8325 106.861 49.8325C107.586 49.8325 108.284 49.8743 108.953 49.958C109.65 50.0138 110.487 50.1114 111.463 50.2509C112.021 50.3067 112.468 50.4322 112.802 50.6275C113.165 50.8227 113.43 51.1435 113.597 51.5898C113.765 52.0361 113.848 52.7055 113.848 53.5981C113.542 53.4866 113.067 53.3889 112.426 53.3052C111.812 53.1937 111.143 53.11 110.417 53.0542C109.692 52.9984 109.051 52.9705 108.493 52.9705C107.07 52.9705 105.941 53.1379 105.104 53.4726C104.295 53.8073 103.709 54.3652 103.346 55.1462C103.012 55.9273 102.844 57.0012 102.844 58.368C102.844 59.7068 103.012 60.7668 103.346 61.5478C103.709 62.3288 104.295 62.8867 105.104 63.2214C105.941 63.5562 107.07 63.7235 108.493 63.7235C109.134 63.7235 109.804 63.6956 110.501 63.6399C111.226 63.5841 111.882 63.5143 112.468 63.4307C113.081 63.3191 113.542 63.2075 113.848 63.0959V64.7695C113.848 65.4669 113.528 65.9829 112.886 66.3176C112.272 66.6245 111.436 66.8197 110.376 66.9034C109.316 66.9871 108.144 67.0289 106.861 67.0289Z" fill="#0677EE"/>
<path d="M121.114 66.7779C120.138 66.7779 119.524 66.6524 119.273 66.4013C119.022 66.1224 118.897 65.6064 118.897 64.8532V45.6484H125.131V50.5019C125.466 50.4183 125.856 50.3485 126.302 50.2927C126.777 50.2369 127.279 50.1951 127.809 50.1672C128.339 50.1393 128.841 50.1254 129.315 50.1254C131.212 50.1254 132.732 50.2648 133.876 50.5438C135.019 50.8227 135.884 51.2551 136.47 51.8408C137.055 52.4266 137.446 53.1937 137.641 54.1421C137.864 55.0904 137.976 56.248 137.976 57.6148V64.1419C137.976 64.8951 137.892 65.4669 137.725 65.8574C137.585 66.22 137.32 66.4711 136.93 66.6105C136.539 66.7221 135.968 66.7779 135.215 66.7779H131.867V56.778C131.867 55.7181 131.742 54.9231 131.491 54.3931C131.24 53.8352 130.835 53.4726 130.277 53.3052C129.747 53.11 129.036 53.0124 128.143 53.0124C127.837 53.0124 127.488 53.0263 127.097 53.0542C126.735 53.0821 126.372 53.1379 126.01 53.2216C125.647 53.2774 125.354 53.3471 125.131 53.4308V66.7779H121.114Z" fill="#0677EE"/>
<path d="M152.749 67.0289C150.797 67.0289 149.193 66.9174 147.938 66.6942C146.682 66.4432 145.692 66.0248 144.967 65.439C144.242 64.8532 143.726 64.0304 143.419 62.9704C143.112 61.9104 142.959 60.5297 142.959 58.8282C142.959 56.6525 143.265 54.9231 143.879 53.64C144.493 52.3569 145.553 51.4224 147.059 50.8367C148.593 50.2509 150.713 49.958 153.419 49.958C155.539 49.958 157.226 50.1812 158.481 50.6275C159.737 51.0738 160.643 51.7711 161.201 52.7195C161.759 53.6679 162.038 54.8812 162.038 56.3596V59.5813H150.406C150.406 58.9956 150.532 58.5074 150.783 58.1169C151.062 57.6985 151.564 57.4893 152.289 57.4893H156.473L156.431 56.6106C156.431 55.467 156.194 54.6163 155.72 54.0584C155.274 53.4726 154.423 53.1797 153.168 53.1797C152.136 53.1797 151.327 53.3471 150.741 53.6818C150.183 53.9886 149.793 54.5465 149.569 55.3554C149.374 56.1365 149.277 57.2662 149.277 58.7445C149.277 60.0834 149.402 61.0876 149.653 61.757C149.932 62.4265 150.42 62.8867 151.118 63.1378C151.815 63.3609 152.805 63.4725 154.088 63.4725C154.562 63.4725 155.204 63.4585 156.013 63.4307C156.822 63.4028 157.645 63.3749 158.481 63.347C159.346 63.2912 160.099 63.2493 160.741 63.2214C161.41 63.1657 161.829 63.1099 161.996 63.0541V63.8072C161.996 64.1977 161.926 64.6161 161.787 65.0624C161.675 65.4808 161.438 65.8295 161.076 66.1084C160.573 66.499 159.639 66.75 158.272 66.8616C156.933 66.9731 155.092 67.0289 152.749 67.0289Z" fill="#0677EE"/>
<path d="M174.827 66.9453C174.158 66.9453 173.447 66.9313 172.693 66.9034C171.94 66.8755 171.187 66.8197 170.434 66.736C169.709 66.6524 169.039 66.5268 168.426 66.3595C167.924 66.2479 167.505 66.1084 167.171 65.9411C166.864 65.7458 166.627 65.3972 166.459 64.8951C166.32 64.3651 166.25 63.5422 166.25 62.4265C167.115 62.7333 168.007 62.9844 168.928 63.1796C169.848 63.347 170.741 63.4725 171.606 63.5562C172.498 63.612 173.321 63.6399 174.074 63.6399C174.604 63.6399 175.176 63.6399 175.79 63.6399C176.431 63.612 177.045 63.5422 177.631 63.4307C178.216 63.2912 178.705 63.082 179.095 62.803C179.486 62.4962 179.681 62.0778 179.681 61.5478C179.681 60.9063 179.513 60.4879 179.179 60.2926C178.844 60.0974 178.398 59.9997 177.84 59.9997H173.07C171.787 59.9997 170.643 59.93 169.639 59.7905C168.663 59.6511 167.882 59.2745 167.296 58.6608C166.738 58.0193 166.459 56.9454 166.459 55.4391C166.459 53.7934 166.864 52.58 167.673 51.799C168.509 50.9901 169.695 50.4601 171.229 50.2091C172.763 49.958 174.604 49.8325 176.752 49.8325C177.533 49.8325 178.44 49.8464 179.472 49.8743C180.532 49.9022 181.452 49.972 182.233 50.0835C183.098 50.1672 183.767 50.3067 184.241 50.5019C184.744 50.6693 185.106 50.9482 185.329 51.3387C185.552 51.7014 185.664 52.2732 185.664 53.0542V54.2257C185.497 53.9468 185.064 53.7376 184.367 53.5981C183.698 53.4308 182.875 53.3192 181.898 53.2634C180.95 53.2076 179.946 53.1797 178.886 53.1797C177.854 53.1797 176.891 53.1797 175.999 53.1797C175.385 53.1797 174.813 53.2216 174.283 53.3052C173.781 53.361 173.377 53.5284 173.07 53.8073C172.763 54.0584 172.61 54.4768 172.61 55.0625C172.61 55.5088 172.707 55.8436 172.903 56.0667C173.098 56.262 173.363 56.3875 173.698 56.4433C174.032 56.4991 174.409 56.527 174.827 56.527H180.141C181.313 56.527 182.345 56.6385 183.237 56.8617C184.13 57.0569 184.813 57.5032 185.287 58.2006C185.762 58.87 185.999 59.93 185.999 61.3805C185.999 63.0541 185.525 64.2814 184.576 65.0624C183.628 65.8435 182.317 66.3595 180.643 66.6105C178.97 66.8337 177.031 66.9453 174.827 66.9453Z" fill="#0677EE"/>
<path d="M197.405 66.9453C195.898 66.9453 194.713 66.7918 193.848 66.485C193.011 66.1503 192.426 65.6203 192.091 64.8951C191.756 64.1419 191.589 63.1099 191.589 61.7989V53.3471H189.79V50.0835H191.589V47.9497C191.589 47.2523 191.631 46.7363 191.714 46.4016C191.826 46.0668 192.035 45.8576 192.342 45.774C192.649 45.6903 193.137 45.6484 193.806 45.6484H197.823C197.823 45.76 197.823 45.8995 197.823 46.0668C197.823 46.2342 197.823 46.4434 197.823 46.6945V50.0835H201.881V53.3471H197.865V61.2968C197.865 62.4125 197.962 63.2214 198.158 63.7235C198.381 64.2256 198.953 64.4767 199.873 64.4767C200.124 64.4767 200.445 64.4488 200.835 64.393C201.254 64.3372 201.547 64.2814 201.714 64.2256V66.5268C201.519 66.5547 201.031 66.6384 200.25 66.7779C199.497 66.8895 198.548 66.9453 197.405 66.9453Z" fill="#0677EE"/>
<path d="M215.78 67.0289C213.827 67.0289 212.223 66.9174 210.968 66.6942C209.713 66.4432 208.723 66.0248 207.997 65.439C207.272 64.8532 206.756 64.0304 206.449 62.9704C206.142 61.9104 205.989 60.5297 205.989 58.8282C205.989 56.6525 206.296 54.9231 206.91 53.64C207.523 52.3569 208.583 51.4224 210.089 50.8367C211.624 50.2509 213.743 49.958 216.449 49.958C218.569 49.958 220.257 50.1812 221.512 50.6275C222.767 51.0738 223.674 51.7711 224.231 52.7195C224.789 53.6679 225.068 54.8812 225.068 56.3596V59.5813H213.437C213.437 58.9956 213.562 58.5074 213.813 58.1169C214.092 57.6985 214.594 57.4893 215.319 57.4893H219.504L219.462 56.6106C219.462 55.467 219.225 54.6163 218.75 54.0584C218.304 53.4726 217.453 53.1797 216.198 53.1797C215.166 53.1797 214.357 53.3471 213.771 53.6818C213.213 53.9886 212.823 54.5465 212.6 55.3554C212.405 56.1365 212.307 57.2662 212.307 58.7445C212.307 60.0834 212.432 61.0876 212.684 61.757C212.962 62.4265 213.451 62.8867 214.148 63.1378C214.845 63.3609 215.835 63.4725 217.119 63.4725C217.593 63.4725 218.234 63.4585 219.043 63.4307C219.852 63.4028 220.675 63.3749 221.512 63.347C222.377 63.2912 223.13 63.2493 223.771 63.2214C224.441 63.1657 224.859 63.1099 225.026 63.0541V63.8072C225.026 64.1977 224.957 64.6161 224.817 65.0624C224.706 65.4808 224.469 65.8295 224.106 66.1084C223.604 66.499 222.669 66.75 221.303 66.8616C219.964 66.9731 218.123 67.0289 215.78 67.0289Z" fill="#0677EE"/>
<path d="M236.393 66.7779H231.875C231.261 66.7779 230.815 66.6245 230.536 66.3176C230.257 66.0108 230.117 65.3972 230.117 64.4767V50.9203C230.898 50.7251 232.028 50.5159 233.506 50.2927C235.013 50.0696 236.7 49.958 238.569 49.958C240.522 49.958 242.056 50.0696 243.172 50.2927C244.315 50.5159 245.152 50.8646 245.682 51.3387C246.212 51.785 246.547 52.3708 246.686 53.096C246.853 53.7934 246.937 54.6441 246.937 55.6483H240.954V55.0625C240.954 54.3931 240.828 53.905 240.577 53.5981C240.354 53.2913 240.075 53.096 239.741 53.0124C239.406 52.9287 239.057 52.8868 238.695 52.8868C238.137 52.8868 237.649 52.9426 237.23 53.0542C236.84 53.1658 236.561 53.3331 236.393 53.5563V66.7779Z" fill="#0677EE"/>
<path d="M14.5312 82.2842L17.5187 73.9834C17.7178 73.4713 17.9881 73.0801 18.3295 72.8098C18.6709 72.5253 19.2258 72.383 19.9939 72.383C20.6768 72.383 21.196 72.5111 21.5517 72.7671C21.9215 73.0232 22.2061 73.4286 22.4052 73.9834L25.4566 82.2842H23.0881L22.1705 79.7235H17.1132L16.217 82.2842H14.5312ZM17.4546 78.806H21.7651L20.4207 74.901C20.3638 74.7161 20.2856 74.5525 20.186 74.4102C20.1006 74.268 19.9086 74.1968 19.6098 74.1968C19.2969 74.1968 19.0906 74.2751 18.991 74.4316C18.8914 74.5738 18.8132 74.7303 18.7563 74.901L17.4546 78.806Z" fill="white"/>
<path d="M40.7985 82.3695C40.0445 82.3695 39.5324 82.1917 39.2621 81.8361C38.9918 81.4662 38.8567 80.9185 38.8567 80.193L38.878 73.7701H40.8625V80.0863C40.8625 80.6269 40.9265 80.9968 41.0545 81.1959C41.1968 81.3951 41.4315 81.4947 41.7587 81.4947C41.8867 81.4947 42.029 81.4804 42.1855 81.452C42.342 81.4235 42.4415 81.4022 42.4842 81.388V82.1988C42.4273 82.2131 42.3349 82.2344 42.2068 82.2628C42.0788 82.2913 41.901 82.3126 41.6734 82.3269C41.4457 82.3553 41.1541 82.3695 40.7985 82.3695ZM39.9022 72.5964C39.5751 72.5964 39.3261 72.5538 39.1554 72.4684C38.9989 72.3688 38.9207 72.191 38.9207 71.9349C38.9207 71.6789 38.9989 71.5082 39.1554 71.4228C39.3119 71.3232 39.5608 71.2734 39.9022 71.2734C40.2294 71.2734 40.4642 71.3232 40.6064 71.4228C40.7629 71.5082 40.8411 71.6789 40.8411 71.9349C40.8411 72.191 40.7629 72.3688 40.6064 72.4684C40.4642 72.5538 40.2294 72.5964 39.9022 72.5964Z" fill="white"/>
<path d="M57.7072 82.2842H56.3415C56.1281 82.2842 55.9645 82.2273 55.8507 82.1135C55.7369 81.9997 55.68 81.7863 55.68 81.4733V74.1968C56.0214 74.0973 56.498 73.9906 57.1097 73.8768C57.7214 73.7629 58.454 73.706 59.3076 73.706C60.1469 73.706 60.8084 73.7629 61.2921 73.8768C61.7758 73.9763 62.1314 74.1328 62.359 74.3462C62.6008 74.5454 62.7502 74.7943 62.8071 75.0931C62.8783 75.3776 62.9138 75.7119 62.9138 76.096H60.9933L60.972 75.7972C60.972 75.4558 60.8795 75.214 60.6946 75.0717C60.5239 74.9152 60.3176 74.8157 60.0758 74.773C59.8339 74.7303 59.5921 74.709 59.3503 74.709C58.9804 74.709 58.6461 74.7445 58.3473 74.8157C58.0628 74.8868 57.8494 74.9793 57.7072 75.0931V82.2842Z" fill="white"/>
<path d="M76.3595 84.5674L76.3808 75.4985C76.3808 75.1286 76.3737 74.8014 76.3595 74.5169C76.3595 74.2324 76.3453 74.0475 76.3168 73.9621C76.4306 73.9337 76.644 73.9052 76.957 73.8768C77.2842 73.8483 77.6541 73.827 78.0666 73.8127C78.4791 73.7843 78.8988 73.7629 79.3256 73.7487C79.7666 73.7203 80.1578 73.706 80.4992 73.706C81.7084 73.706 82.6473 73.8554 83.3159 74.1542C83.9987 74.4529 84.4753 74.9295 84.7456 75.5838C85.0301 76.224 85.1581 77.0704 85.1297 78.1231C85.087 79.1616 84.9448 79.9938 84.7029 80.6198C84.4611 81.2315 84.0628 81.6796 83.508 81.9641C82.9674 82.2344 82.2134 82.3695 81.2461 82.3695C80.6628 82.3695 80.1436 82.3126 79.6883 82.1988C79.2473 82.085 78.8917 81.893 78.6214 81.6227C78.3511 81.3382 78.1662 80.9612 78.0666 80.4917L78.3867 80.2784V84.5674H76.3595ZM80.7766 81.2173C81.5875 81.2173 82.1707 80.9683 82.5264 80.4704C82.8962 79.9725 83.0812 79.1403 83.0812 77.9738C83.1096 76.8073 82.9389 75.9893 82.5691 75.5198C82.1992 75.0504 81.5235 74.8157 80.5419 74.8157C80.3427 74.8157 80.0938 74.8228 79.795 74.837C79.5105 74.8512 79.2402 74.8726 78.9842 74.901C78.7281 74.9152 78.5289 74.9366 78.3867 74.965V78.8487C78.3867 79.4888 78.4863 79.9796 78.6854 80.321C78.8846 80.6624 79.162 80.8972 79.5176 81.0252C79.8733 81.1532 80.2929 81.2173 80.7766 81.2173Z" fill="white"/>
<path d="M103.199 82.4122C102.488 82.4122 101.855 82.3624 101.3 82.2628C100.759 82.149 100.29 81.9428 99.8915 81.644C99.5074 81.3453 99.2158 80.9043 99.0167 80.321C98.8175 79.7378 98.7179 78.9767 98.7179 78.0378C98.7179 77.0989 98.8175 76.3378 99.0167 75.7546C99.2158 75.1713 99.5074 74.7303 99.8915 74.4316C100.29 74.1328 100.759 73.9337 101.3 73.8341C101.855 73.7203 102.488 73.6634 103.199 73.6634C103.882 73.6634 104.494 73.7203 105.034 73.8341C105.589 73.9337 106.058 74.1328 106.443 74.4316C106.827 74.7303 107.118 75.1713 107.317 75.7546C107.531 76.3378 107.637 77.0989 107.637 78.0378C107.637 78.9909 107.531 79.7591 107.317 80.3424C107.118 80.9256 106.827 81.3666 106.443 81.6654C106.058 81.9499 105.589 82.149 105.034 82.2628C104.494 82.3624 103.882 82.4122 103.199 82.4122ZM103.199 81.3453C103.711 81.3453 104.145 81.267 104.501 81.1106C104.871 80.9541 105.148 80.6411 105.333 80.1717C105.518 79.7022 105.61 78.9909 105.61 78.0378C105.61 77.0847 105.518 76.3734 105.333 75.9039C105.148 75.4345 104.871 75.1215 104.501 74.965C104.145 74.8085 103.711 74.7303 103.199 74.7303C102.687 74.7303 102.246 74.8085 101.876 74.965C101.506 75.1215 101.222 75.4345 101.022 75.9039C100.838 76.3734 100.745 77.0847 100.745 78.0378C100.745 78.9909 100.838 79.7022 101.022 80.1717C101.222 80.6411 101.506 80.9541 101.876 81.1106C102.246 81.267 102.687 81.3453 103.199 81.3453Z" fill="white"/>
<path d="M123.535 82.2842H122.17C121.956 82.2842 121.793 82.2273 121.679 82.1135C121.565 81.9997 121.508 81.7863 121.508 81.4733V74.1968C121.85 74.0973 122.326 73.9906 122.938 73.8768C123.549 73.7629 124.282 73.706 125.136 73.706C125.975 73.706 126.636 73.7629 127.12 73.8768C127.604 73.9763 127.959 74.1328 128.187 74.3462C128.429 74.5454 128.578 74.7943 128.635 75.0931C128.706 75.3776 128.742 75.7119 128.742 76.096H126.821L126.8 75.7972C126.8 75.4558 126.708 75.214 126.523 75.0717C126.352 74.9152 126.146 74.8157 125.904 74.773C125.662 74.7303 125.42 74.709 125.178 74.709C124.808 74.709 124.474 74.7445 124.175 74.8157C123.891 74.8868 123.678 74.9793 123.535 75.0931V82.2842Z" fill="white"/>
<path d="M144.663 82.3482C144.094 82.3482 143.646 82.2842 143.319 82.1562C143.006 82.0281 142.778 81.8005 142.636 81.4733C142.493 81.1461 142.422 80.7051 142.422 80.1503V74.8583H141.569V73.7701H142.422V72.3617C142.422 72.1056 142.444 71.9207 142.486 71.8069C142.529 71.6789 142.6 71.6006 142.7 71.5722C142.814 71.5295 142.977 71.5082 143.191 71.5082H144.428C144.428 71.5366 144.428 71.6006 144.428 71.7002C144.428 71.7856 144.428 71.9136 144.428 72.0843V73.7701H146.434V74.8583H144.428V79.9583C144.428 80.5131 144.485 80.9114 144.599 81.1532C144.713 81.3808 144.983 81.4947 145.41 81.4947C145.552 81.4947 145.708 81.4804 145.879 81.452C146.064 81.4235 146.192 81.3951 146.263 81.3666V82.1988C146.178 82.2131 145.993 82.2415 145.708 82.2842C145.424 82.3269 145.075 82.3482 144.663 82.3482Z" fill="white"/>
<path d="M176.65 72.4684H186.978V73.6847H182.923V81.452C182.923 81.7649 182.874 81.9854 182.774 82.1135C182.689 82.2273 182.482 82.2842 182.155 82.2842H180.726V73.6847H176.65V72.4684Z" fill="white"/>
<path d="M203.771 82.4122C202.889 82.4122 202.171 82.3695 201.616 82.2842C201.061 82.2131 200.634 82.0779 200.336 81.8787C200.037 81.6796 199.831 81.4093 199.717 81.0679C199.617 80.7265 199.568 80.2997 199.568 79.7876C199.568 79.062 199.646 78.5144 199.802 78.1445C199.973 77.7604 200.258 77.4972 200.656 77.355C201.068 77.2127 201.616 77.1416 202.299 77.1416C202.655 77.1416 203.046 77.1487 203.473 77.1629C203.914 77.1771 204.333 77.1985 204.732 77.2269C205.144 77.2411 205.5 77.2625 205.798 77.2909C206.111 77.3194 206.318 77.355 206.417 77.3976C206.417 76.8001 206.367 76.3307 206.268 75.9893C206.168 75.6479 206.005 75.3918 205.777 75.2211C205.564 75.0504 205.293 74.9366 204.966 74.8797C204.639 74.8228 204.255 74.7943 203.814 74.7943C203.33 74.7943 202.847 74.8085 202.363 74.837C201.893 74.8654 201.445 74.9152 201.019 74.9864C200.606 75.0575 200.265 75.15 199.994 75.2638V74.8583C199.994 74.5311 200.08 74.2964 200.25 74.1542C200.435 74.0119 200.656 73.9194 200.912 73.8768C201.196 73.8056 201.616 73.7487 202.171 73.706C202.726 73.6634 203.316 73.6491 203.942 73.6634C204.739 73.6634 205.414 73.706 205.969 73.7914C206.538 73.8625 206.993 74.019 207.335 74.2608C207.69 74.5027 207.947 74.8654 208.103 75.3491C208.274 75.8328 208.359 76.4801 208.359 77.2909V81.644C208.231 81.9143 207.797 82.1135 207.057 82.2415C206.318 82.3553 205.222 82.4122 203.771 82.4122ZM203.771 81.516C204.34 81.516 204.803 81.5018 205.158 81.4733C205.528 81.4306 205.813 81.3808 206.012 81.3239C206.211 81.2528 206.346 81.1675 206.417 81.0679V78.1231C206.289 78.0805 206.062 78.0449 205.734 78.0165C205.407 77.9738 205.066 77.9382 204.71 77.9098C204.355 77.8813 204.056 77.8671 203.814 77.8671C203.288 77.8671 202.861 77.9026 202.534 77.9738C202.206 78.0449 201.972 78.2085 201.829 78.4646C201.687 78.7206 201.616 79.119 201.616 79.6595C201.616 80.1005 201.666 80.4562 201.765 80.7265C201.865 80.9968 202.064 81.1959 202.363 81.3239C202.676 81.452 203.145 81.516 203.771 81.516Z" fill="white"/>
<path d="M221.269 82.2842L224.513 78.0591L221.888 74.4956C221.789 74.3391 221.689 74.1968 221.59 74.0688C221.504 73.9408 221.405 73.8341 221.291 73.7487H223.851L226.007 76.6508L228.247 73.7701H229.784C229.741 73.8127 229.684 73.8696 229.613 73.9408C229.556 74.0119 229.485 74.1044 229.399 74.2182L226.86 77.7817L230.189 82.2842H228.525C228.24 82.2842 227.984 82.2344 227.756 82.1348C227.543 82.021 227.351 81.8574 227.18 81.644L225.26 79.1047L222.827 82.2842H221.269Z" fill="white"/>
<path d="M245.145 82.3695C244.391 82.3695 243.879 82.1917 243.609 81.8361C243.339 81.4662 243.203 80.9185 243.203 80.193L243.225 73.7701H245.209V80.0863C245.209 80.6269 245.273 80.9968 245.401 81.1959C245.544 81.3951 245.778 81.4947 246.105 81.4947C246.234 81.4947 246.376 81.4804 246.532 81.452C246.689 81.4235 246.788 81.4022 246.831 81.388V82.1988C246.774 82.2131 246.682 82.2344 246.554 82.2628C246.426 82.2913 246.248 82.3126 246.02 82.3269C245.793 82.3553 245.501 82.3695 245.145 82.3695ZM244.249 72.5964C243.922 72.5964 243.673 72.5538 243.502 72.4684C243.346 72.3688 243.267 72.191 243.267 71.9349C243.267 71.6789 243.346 71.5082 243.502 71.4228C243.659 71.3232 243.908 71.2734 244.249 71.2734C244.576 71.2734 244.811 71.3232 244.953 71.4228C245.11 71.5082 245.188 71.6789 245.188 71.9349C245.188 72.191 245.11 72.3688 244.953 72.4684C244.811 72.5538 244.576 72.5964 244.249 72.5964Z" fill="white"/>
<path d="M247.438 46.0352C260.603 46.2025 268.033 53.9617 270.102 57.8203C262.905 53.2457 255.341 52.474 252.459 52.6599C251.51 48.978 248.716 46.7093 247.438 46.0352Z" fill="#0677EE"/>
<path d="M2.61067 31.3555C-0.1315 38.3627 0.83341 53.1896 1.65864 59.7272C3.3172 49.5841 9.73395 44.5522 12.735 43.3041C11.9405 41.2612 9.80859 40.1532 8.03393 38.8667C2.93225 35.1683 2.22753 32.3877 2.61067 31.3555Z" fill="#0677EE"/>
<path d="M96.5371 23.293C71.1542 28.4517 55.8684 36.0946 51.3984 39.2713C80.5933 28.5352 107.466 26.5044 117.252 26.831L118.622 42.524L122.274 20.668C112.185 20.9419 100.912 22.5321 96.5371 23.293Z" fill="white"/>
<path d="M184.211 41.4105C162.221 22.8375 139.056 20.2385 130.222 21.2606C151.512 25.3782 164.426 33.8543 168.222 37.5776L127.375 41.4105H184.211Z" fill="white"/>
<path d="M13.729 39.6034C9.68842 38.6924 5.38055 31.6644 3.71094 28.2596C20.8659 31.2343 50.6638 23.7965 63.4183 19.7058C85.5015 12.5368 114.132 10.2262 127.717 9.88816C129.045 9.85511 130.198 8.9723 130.563 7.69501L131.491 4.44543C132.227 1.86962 134.581 0.09375 137.26 0.09375H137.549C140.204 0.09375 142.543 1.83886 143.3 4.38393L144.883 9.70722C145.217 10.8312 146.178 11.6542 147.336 11.8389C168.847 15.2685 186.192 24.3152 194.492 29.952C196.356 31.218 198.528 31.9764 200.781 32.0102C235.431 32.5296 259.14 42.4605 266.839 47.5216C234.6 39.4812 209.27 40.1861 200.635 41.5436C197.667 41.7642 195.106 41.1117 193.034 40.1269C188.815 38.1207 185.754 34.2408 181.645 32.0168C178.362 30.24 174.785 28.5642 172.702 27.6504C159.705 21.5432 146.773 18.5496 135.483 17.3448C114.588 15.1151 93.6634 20.2989 73.305 25.5077C67.9553 26.8765 62.9563 28.1951 59.2519 29.1926L23.8453 39.1124C18.826 40.4705 16.6327 40.2582 13.729 39.6034Z" fill="#0677EE"/>
</svg>
