<svg width="161" height="165" viewBox="0 0 161 165" fill="none" xmlns="http://www.w3.org/2000/svg">
<ellipse cx="59.8815" cy="64.416" rx="52.0954" ry="38.0739" transform="rotate(12.3752 59.8815 64.416)" fill="#E9F4FF"/>
<ellipse cx="59.8801" cy="64.4127" rx="52.0954" ry="38.0739" transform="rotate(-60 59.8801 64.4127)" fill="#E9F4FF"/>
<g filter="url(#filter0_d_822_1530)">
<path fill-rule="evenodd" clip-rule="evenodd" d="M39.5159 70.5247C39.3503 71.1268 39.2975 71.7528 39.2974 72.3773C39.2973 72.7204 39.2972 73.0635 39.2969 73.4065C39.2968 73.5054 39.3144 73.6021 39.3321 73.6991C39.3382 73.7325 39.3443 73.7658 39.3497 73.7994C39.63 75.547 40.405 77.0401 41.6564 78.2891C41.8417 78.4739 42.027 78.6588 42.2123 78.8436C43.8173 80.4448 45.422 82.0457 47.0183 83.655C47.2464 83.8847 47.391 83.908 47.6311 83.6654C48.3854 82.9039 49.1448 82.1475 49.9042 81.3912C50.9933 80.3064 52.0824 79.2218 53.1561 78.122C56.2073 74.9969 56.1374 69.8904 53.0308 66.8287C49.2567 63.1092 43.0193 63.9349 40.3384 68.5049C39.9636 69.1444 39.7087 69.8236 39.5159 70.5247ZM47.3457 75.48C49.0684 75.48 50.4648 74.0835 50.4648 72.3608C50.4648 70.6382 49.0684 69.2417 47.3457 69.2417C45.623 69.2417 44.2266 70.6382 44.2266 72.3608C44.2266 74.0835 45.623 75.48 47.3457 75.48Z" fill="#0073EC"/>
<path d="M62.5471 84.9618C58.492 84.9618 54.4368 84.9618 50.3824 84.9618C50.2756 84.9618 50.168 84.9666 50.0611 84.9594C49.9728 84.9537 49.8555 84.9939 49.8089 84.8911C49.7608 84.7851 49.8684 84.7248 49.9294 84.6622C50.2298 84.357 50.5768 84.0871 50.829 83.7466C51.5558 82.7627 52.4923 82.5314 53.7011 82.5426C60.3649 82.6045 67.0304 82.5708 73.6951 82.574C74.9544 82.5748 76.0837 82.2487 76.9423 81.2777C77.9944 80.089 78.2442 78.7059 77.7061 77.2369C77.1816 75.8041 76.1086 74.968 74.5818 74.7399C74.2621 74.6925 73.9441 74.6789 73.622 74.6789C70.4768 74.6805 67.3324 74.6813 64.1872 74.6789C60.8822 74.6764 58.1779 72.3698 57.7804 69.0936C57.2808 64.9782 60.5489 61.9567 63.9246 61.935C65.049 61.9278 66.1726 61.9382 67.2971 61.9254C67.5709 61.9222 67.7782 61.9961 67.9725 62.1953C68.5685 62.8097 69.1829 63.4072 69.7853 64.016C69.8728 64.1052 70.0471 64.1871 69.978 64.3293C69.9138 64.4602 69.7355 64.3959 69.6078 64.3959C67.828 64.3999 66.0481 64.3871 64.2683 64.4024C62.7857 64.4144 61.5962 65.0087 60.797 66.2842C59.2951 68.6816 60.899 71.8927 63.7149 72.1593C64.3575 72.2204 64.9976 72.2067 65.6393 72.2083C68.5034 72.2139 71.3675 72.1971 74.2308 72.218C77.6386 72.2429 80.3887 75.082 80.4609 78.4995C80.5228 81.3973 78.5382 84.2285 75.4307 84.9072C75.1914 84.9594 74.9528 84.9602 74.7127 84.9602C70.6575 84.9618 66.6023 84.9618 62.5471 84.9618Z" fill="#0073EC"/>
<path fill-rule="evenodd" clip-rule="evenodd" d="M80.4199 51.1025C80.0231 46.9598 76.5526 43.862 72.3834 43.8628C70.0325 43.8628 67.9957 44.768 66.3773 46.5309C63.5775 49.5813 63.6257 54.4686 66.5179 57.4355C67.643 58.59 68.7855 59.7275 69.928 60.8649C70.6532 61.5869 71.3784 62.3088 72.0991 63.0351C72.3232 63.2616 72.4637 63.2504 72.6822 63.0303C73.3757 62.3314 74.0738 61.6369 74.772 60.9423C75.9327 59.7877 77.0934 58.633 78.2328 57.458C79.9436 55.6934 80.6528 53.5313 80.4199 51.1025ZM72.3848 54.8003C74.1074 54.8003 75.5039 53.4038 75.5039 51.6812C75.5039 49.9585 74.1074 48.562 72.3848 48.562C70.6621 48.562 69.2656 49.9585 69.2656 51.6812C69.2656 53.4038 70.6621 54.8003 72.3848 54.8003Z" fill="#0073EC"/>
</g>
<defs>
<filter id="filter0_d_822_1530" x="19.2969" y="23.8628" width="141.166" height="141.101" filterUnits="userSpaceOnUse" color-interpolation-filters="sRGB">
<feFlood flood-opacity="0" result="BackgroundImageFix"/>
<feColorMatrix in="SourceAlpha" type="matrix" values="0 0 0 0 0 0 0 0 0 0 0 0 0 0 0 0 0 0 127 0" result="hardAlpha"/>
<feOffset dx="30" dy="30"/>
<feGaussianBlur stdDeviation="25"/>
<feComposite in2="hardAlpha" operator="out"/>
<feColorMatrix type="matrix" values="0 0 0 0 1 0 0 0 0 0.811765 0 0 0 0 0.0901961 0 0 0 0.07 0"/>
<feBlend mode="normal" in2="BackgroundImageFix" result="effect1_dropShadow_822_1530"/>
<feBlend mode="normal" in="SourceGraphic" in2="effect1_dropShadow_822_1530" result="shape"/>
</filter>
</defs>
</svg>
