<svg width="161" height="169" viewBox="0 0 161 169" fill="none" xmlns="http://www.w3.org/2000/svg">
<ellipse cx="59.7096" cy="64.416" rx="52.0954" ry="38.0739" transform="rotate(12.3752 59.7096 64.416)" fill="#E9F4FF"/>
<ellipse cx="59.7082" cy="64.4127" rx="52.0954" ry="38.0739" transform="rotate(-60 59.7082 64.4127)" fill="#E9F4FF"/>
<g filter="url(#filter0_d_822_1507)">
<path d="M58.4315 40.5429C58.8309 40.349 59.281 40.3042 59.7249 40.3042C60.1549 40.3042 60.591 40.3454 60.978 40.5327C61.4728 40.7723 61.9041 41.1143 62.3125 41.4989C64.0669 43.1498 66.0621 44.4273 68.3028 45.3162C70.5238 46.1977 72.8436 46.6172 75.217 46.7649C77.4445 46.9032 79.278 48.3331 79.9515 50.4534C80.213 51.2765 80.2187 52.126 80.2234 52.966C80.2412 55.6921 80.3118 58.4183 80.1726 61.1454C80.0286 63.9693 79.6994 66.7623 79.0146 69.5063C77.9168 73.9116 75.9046 77.8268 72.7222 81.1032C69.3677 84.5556 65.2691 86.7832 60.7716 88.3475C59.9918 88.6185 59.1969 88.5545 58.4189 88.276C56.3485 87.5357 54.3448 86.6496 52.4399 85.5471C46.9546 82.3722 43.1222 77.8315 41.0753 71.8082C39.7912 68.0313 39.3237 64.117 39.2023 60.1614C39.1177 57.4061 39.16 54.6461 39.2456 51.887C39.3303 49.1505 41.4657 46.8985 44.3056 46.7564C45.6518 46.6897 46.9866 46.4996 48.3008 46.1939C51.7052 45.4018 54.6844 43.813 57.2214 41.4048C57.5888 41.0557 57.9859 40.7593 58.4315 40.5429ZM71.6395 64.3851C71.6386 57.7805 66.317 52.4599 59.7133 52.4608C53.1077 52.4618 47.789 57.7814 47.79 64.387C47.7909 70.9935 53.1096 76.3113 59.7162 76.3104C66.3217 76.3104 71.6395 70.9917 71.6395 64.3851Z" fill="#0073EC"/>
<path d="M59.6979 73.6251C54.6436 73.6166 50.4688 69.4362 50.4688 64.3846C50.4688 59.3133 54.6803 55.1188 59.745 55.1442C64.805 55.1705 68.9676 59.3585 68.9497 64.4082C68.9318 69.4663 64.7485 73.6336 59.6979 73.6251ZM65.5077 61.7648C65.5002 61.0508 65.0825 60.5155 64.5124 60.365C63.9113 60.2061 63.4494 60.4431 63.0355 60.858C61.3874 62.5126 59.7346 64.1617 58.0837 65.8126C57.588 66.3084 57.587 66.3074 57.1063 65.8286C56.7733 65.4965 56.4431 65.1626 56.1064 64.8343C55.89 64.6236 55.6482 64.4571 55.3378 64.4119C54.7151 64.3216 54.177 64.5643 53.8967 65.0695C53.6022 65.601 53.6568 66.1842 54.1215 66.6715C54.8994 67.488 55.7009 68.2829 56.5071 69.0721C57.2004 69.7513 57.9661 69.7635 58.6603 69.074C60.8061 66.9424 62.9358 64.7948 65.0703 62.6519C65.3459 62.3744 65.5049 62.0423 65.5077 61.7648Z" fill="#0073EC"/>
</g>
<defs>
<filter id="filter0_d_822_1507" x="19.1562" y="20.3042" width="141.102" height="148.217" filterUnits="userSpaceOnUse" color-interpolation-filters="sRGB">
<feFlood flood-opacity="0" result="BackgroundImageFix"/>
<feColorMatrix in="SourceAlpha" type="matrix" values="0 0 0 0 0 0 0 0 0 0 0 0 0 0 0 0 0 0 127 0" result="hardAlpha"/>
<feOffset dx="30" dy="30"/>
<feGaussianBlur stdDeviation="25"/>
<feComposite in2="hardAlpha" operator="out"/>
<feColorMatrix type="matrix" values="0 0 0 0 1 0 0 0 0 0.811765 0 0 0 0 0.0901961 0 0 0 0.07 0"/>
<feBlend mode="normal" in2="BackgroundImageFix" result="effect1_dropShadow_822_1507"/>
<feBlend mode="normal" in="SourceGraphic" in2="effect1_dropShadow_822_1507" result="shape"/>
</filter>
</defs>
</svg>
